<?xml version="1.0" encoding="utf-8"?>
<!-- Generator: Adobe Illustrator 22.0.1, SVG Export Plug-In . SVG Version: 6.00 Build 0)  -->
<svg version="1.1" xmlns="http://www.w3.org/2000/svg" xmlns:xlink="http://www.w3.org/1999/xlink" x="0px" y="0px"
	 viewBox="0 0 90 60" style="enable-background:new 0 0 90 60;" xml:space="preserve">
<style type="text/css">
	.st0{display:none;}
	.st1{display:inline;}
	.st2{fill:#FCCE1F;}
	.st3{font-family:'FredokaOne-Regular';}
	.st4{font-size:36px;}
	.st5{letter-spacing:20;}
	.st6{display:inline;fill:#FFFFFF;stroke:#FFFFFF;stroke-width:14;stroke-miterlimit:10;}
	.st7{fill:#FFFFFF;stroke:#FFFFFF;stroke-width:14;stroke-miterlimit:10;}
	.st8{display:inline;fill:#FCCE1F;}
	.st9{display:inline;fill:#FFA1FF;}
	.st10{display:inline;fill:#84EC97;}
	.st11{fill:#53C4D4;}
	.st12{clip-path:url(#SVGID_2_);fill:#EC86EF;}
	.st13{clip-path:url(#SVGID_4_);fill:#50E2DE;}
	.st14{clip-path:url(#SVGID_6_);fill:#75D883;}
	.st15{clip-path:url(#SVGID_8_);}
	.st16{fill:#E2B21A;}
	.st17{fill:#FFA1FF;}
	.st18{fill:#84EC97;}
	.st19{clip-path:url(#SVGID_10_);fill:#EC86EF;}
</style>
<g id="Camada_5" class="st0">
	<g class="st1">
		<text transform="matrix(1 0 0 1 -139.5593 29.4004)" class="st2 st3 st4 st5">escola</text>
	</g>
</g>
<g id="Camada_3" class="st0">
	<path class="st6" d="M-138,50.2c0,0-13.5,69.3,1.3,86.3c12.2,14,26.7,8.4,27.3-2.6s-4.5-29.5-4.5-29.5s11.6,33.4,33.5,38.8
		s4.3-38.3-14.6-50.3s39.1-47.2,39.1-47.2s-4.5-14.4-29.2-8.3s-31.2,41.3-31.2,41.3s8.6-26.7-5.4-38.2S-136.5,42.8-138,50.2z"/>
	<path class="st6" d="M-87.1,81.1c-1.7,2-1.4,4.8,0.6,6.5c8.1,6.8,23.7,23,25.1,42.3c1.1,15.2,29,16.2,32.9,7
		c3.9-9.3-26.1-52.7-30.6-59.1c-4.5-6.4-1.3-17.4,3.9-21.5C-50.7,52.7-78,70.3-87.1,81.1z"/>
	<path class="st6" d="M26.7,105.2c-6.3-7.4-11.9-18.7-12.3-29.9c-0.5-14.4,5.4-22,5.4-22s-3.4-2.9-4.2-3.4C-20.7,24.3-57,63-50,74.9
		c2.9,5,31.6,52.7,36.9,60.5c2.6,3.9,4.7,6.3,10.5,6.8c9.4,0.7,11.4-1.9,19.6-6.8c-4-3.1-6.3-16.9,8.2-24.7
		C27.9,109.1,28.8,107.6,26.7,105.2z M-9.4,94c-1.1,2.3-4.8-4.2-7-8.4c-1.1-2.3-0.7-4.9,1.3-6.7c2.1-1.9,4.8-3.7,6.6-2.1
		C-5.1,79.5-7.8,90.7-9.4,94z"/>
	<g class="st1">
		<g>
			<path class="st7" d="M22.6,67.3c1.1-8.4,13.1-27.9,38.8-24.5c11.9,1.6,21.5,8.1,21.9,14c0.4,7.2-10.8,10.6-19.7,11.4
				c-4.2,0.4-6.1,3.9-3.1,6.6c3.4,3.1,7.7,7.1,12.9,11.7c10.4,9.3,18.5,18.7,19,28.4c1.4,30.5-31.8,29.1-37.3,28.8
				c-16.3-0.9-34.8-8.9-32.7-19.3c1.2-5.8,8.6-8.9,17-9.6c3.7-0.3,5.4-4.4,2.7-6.8C33,100,20.2,85.3,22.6,67.3z"/>
		</g>
	</g>
</g>
<g id="DESIGNED_BY_FREEPIK" class="st0">
	<path class="st8" d="M-141,55.2c0,0-10.5,64.3,4.3,81.3c12.2,14,26.7,8.4,27.3-2.6s-4.5-29.5-4.5-29.5s11.6,33.4,33.5,38.8
		s4.3-38.3-14.6-50.3s33.1-42.2,33.1-42.2s-2.5-14.4-27.2-8.3s-27.2,36.3-27.2,36.3s5.6-21.7-8.4-33.2S-139.5,47.8-141,55.2z"/>
	<path class="st9" d="M-87.1,81.1c-1.7,2-1.4,4.8,0.6,6.5c8.1,6.8,23.7,23,25.1,42.3c1.1,15.2,29,16.2,32.9,7
		c3.9-9.3-26.1-52.7-30.6-59.1c-4.5-6.4-2.3-15.4,2.9-19.5C-51.7,54.7-78,70.3-87.1,81.1z"/>
	<path class="st10" d="M26.7,105.2c-6.3-7.4-11.9-18.7-12.3-29.9c-0.5-14.4,5.4-22,5.4-22s-3.4-2.9-4.2-3.4
		C-20.7,24.3-57,63-50,74.9c2.9,5,31.6,52.7,36.9,60.5c2.6,3.9,4.7,6.3,10.5,6.8c9.4,0.7,11.4-1.9,19.6-6.8
		c-4-3.1-6.3-16.9,8.2-24.7C27.9,109.1,28.8,107.6,26.7,105.2z M-9.4,94c-1.1,2.3-4.8-4.2-7-8.4c-1.1-2.3-0.7-4.9,1.3-6.7
		c2.1-1.9,4.8-3.7,6.6-2.1C-5.1,79.5-7.8,90.7-9.4,94z"/>
	<g class="st1">
		<g>
			<path class="st11" d="M22.6,67.3c1.1-8.4,13.1-27.9,38.8-24.5c11.9,1.6,21.5,8.1,21.9,14c0.4,7.2-10.8,10.6-19.7,11.4
				c-4.2,0.4-6.1,3.9-3.1,6.6c3.4,3.1,7.7,7.1,12.9,11.7c10.4,9.3,18.5,18.7,19,28.4c1.4,30.5-31.8,29.1-37.3,28.8
				c-16.3-0.9-34.8-8.9-32.7-19.3c1.2-5.8,8.6-8.9,17-9.6c3.7-0.3,5.4-4.4,2.7-6.8C33,100,20.2,85.3,22.6,67.3z"/>
		</g>
	</g>
</g>
<g id="Camada_4" class="st0">
	<g class="st1">
		<defs>
			<path id="SVGID_1_" d="M-86.8,81.1c-1.7,2-1.4,4.8,0.6,6.5c8.1,6.8,23.7,23,25.1,42.3c1.1,15.2,29,16.2,32.9,7
				c3.9-9.3-26.1-52.7-30.6-59.1c-4.5-6.4-1.3-17.4,3.9-21.5C-50.4,52.7-77.7,70.3-86.8,81.1z"/>
		</defs>
		<clipPath id="SVGID_2_">
			<use xlink:href="#SVGID_1_"  style="overflow:visible;"/>
		</clipPath>
		<polygon class="st12" points="-66.1,85.3 -78.3,106.5 -54.3,109.9 		"/>
		<polygon class="st12" points="-81,92.5 -92.1,89.2 -90.9,100.6 		"/>
		<polygon class="st12" points="-71.4,148.4 -55.9,155.2 -55.4,138.3 		"/>
		<polygon class="st12" points="-76.5,62.8 -91.7,70.3 -79.1,81.5 		"/>
		<polygon class="st12" points="-25.9,124 -41.2,131.5 -28.6,142.8 		"/>
		<polygon class="st12" points="-12.8,137.9 -29,145.9 -15.6,157.9 		"/>
		<polygon class="st12" points="-52,132.5 -58.8,123.9 -63.7,135.6 		"/>
		<polygon class="st12" points="-31.7,111.1 -37.2,104.2 -41.1,113.6 		"/>
		<polygon class="st12" points="-64.6,78.2 -69.2,72.3 -72.5,80.2 		"/>
	</g>
	<g class="st1">
		<defs>
			<path id="SVGID_3_" d="M22.6,67.3c1.1-8.4,13.1-27.9,38.8-24.5c11.9,1.6,21.5,8.1,21.9,14c0.4,7.2-10.8,10.6-19.7,11.4
				c-4.2,0.4-6.1,3.9-3.1,6.6c3.4,3.1,7.7,7.1,12.9,11.7c10.4,9.3,18.5,18.7,19,28.4c1.4,30.5-31.8,29.1-37.3,28.8
				c-16.3-0.9-34.8-8.9-32.7-19.3c1.2-5.8,8.6-8.9,17-9.6c3.7-0.3,5.4-4.4,2.7-6.8C33,100,20.2,85.3,22.6,67.3z"/>
		</defs>
		<clipPath id="SVGID_4_">
			<use xlink:href="#SVGID_3_"  style="overflow:visible;"/>
		</clipPath>
		<path class="st13" d="M49.8,90.3c0.4-0.8,0.7-1.6,0.7-2.6c0-3-2.4-5.4-5.4-5.4c-0.7,0-1.3,0.1-1.9,0.4c-0.6-3.8-3.9-6.7-8-6.7
			c-0.6,0-1.1,0.1-1.7,0.2c-0.9-3.3-3.9-5.8-7.5-5.8c-4.3,0-7.8,3.5-7.8,7.8c0,0,0,0.1,0,0.1C14.7,79,12,82,12,85.7
			c0,1.7,0.6,3.3,1.6,4.6H49.8z"/>
		<path class="st13" d="M94,109.2c0.8-1,1.2-2.2,1.2-3.5c0-3.1-2.5-5.7-5.7-5.7c-0.1,0-0.1,0-0.2,0c-0.7-2.8-3.3-4.9-6.3-4.9
			c-3.2,0-5.8,2.3-6.4,5.2c-0.9-0.6-1.9-0.9-3.1-0.9c-3.2,0-5.8,2.6-5.8,5.8c0,1.5,0.6,2.9,1.5,3.9H94z"/>
		<path class="st13" d="M73.6,55.8c1.4-1.2,2.3-3,2.3-5.1c0-3.6-2.8-6.5-6.3-6.7c-0.7-3.3-3.6-5.8-7.1-5.8c-3.8,0-7,3-7.3,6.7
			c-1.8,0.4-3.3,1.8-3.9,3.5c-0.5-0.2-1.1-0.3-1.6-0.3c-2.5,0-4.6,2.1-4.6,4.6c0,1.2,0.4,2.2,1.1,3H73.6z"/>
		<path class="st13" d="M59.3,130.8c0.8-0.7,1.3-1.8,1.3-2.9c0-2.1-1.6-3.8-3.7-3.9c-0.4-1.9-2.1-3.4-4.2-3.4
			c-2.2,0-4.1,1.7-4.2,3.9c-1.1,0.2-1.9,1-2.3,2.1c-0.3-0.1-0.6-0.2-1-0.2c-1.5,0-2.7,1.2-2.7,2.7c0,0.7,0.3,1.3,0.7,1.8H59.3z"/>
	</g>
	<g class="st1">
		<defs>
			<path id="SVGID_5_" d="M26.7,105.2c-6.3-7.4-11.9-18.7-12.3-29.9c-0.5-14.4,5.4-22,5.4-22s-3.4-2.9-4.2-3.4
				C-20.7,24.3-57,63-50,74.9c2.9,5,31.6,52.7,36.9,60.5c2.6,3.9,4.7,6.3,10.5,6.8c9.4,0.7,11.4-1.9,19.6-6.8
				c-4-3.1-6.3-16.9,8.2-24.7C27.9,109.1,28.8,107.6,26.7,105.2z M-9.4,94c-1.1,2.3-4.8-4.2-7-8.4c-1.1-2.3-0.7-4.9,1.3-6.7
				c2.1-1.9,4.8-3.7,6.6-2.1C-5.1,79.5-7.8,90.7-9.4,94z"/>
		</defs>
		<clipPath id="SVGID_6_">
			<use xlink:href="#SVGID_5_"  style="overflow:visible;"/>
		</clipPath>
		
			<rect x="-52.3" y="56.5" transform="matrix(0.991 -0.1339 0.1339 0.991 -8.8507 -5.6855)" class="st14" width="11.2" height="13"/>
		
			<rect x="-0.5" y="39.4" transform="matrix(0.4466 -0.8947 0.8947 0.4466 -38.4666 31.2592)" class="st14" width="13" height="14.6"/>
		
			<rect x="-50.9" y="103.3" transform="matrix(-0.297 -0.9549 0.9549 -0.297 -158.2415 99.401)" class="st14" width="16.7" height="9.3"/>
		
			<rect x="10.6" y="77" transform="matrix(-0.3429 -0.9394 0.9394 -0.3429 -56.9117 123.5623)" class="st14" width="8.3" height="9.3"/>
		
			<rect x="-28.3" y="34.5" transform="matrix(0.7098 -0.7044 0.7044 0.7098 -33.402 -2.6801)" class="st14" width="16.7" height="9.3"/>
		
			<rect x="4.8" y="106" transform="matrix(0.8014 0.5981 -0.5981 0.8014 71.5616 14.0007)" class="st14" width="19.8" height="17.5"/>
		
			<rect x="-44.2" y="96.3" transform="matrix(0.2749 -0.9615 0.9615 0.2749 -122.6175 41.9255)" class="st14" width="21.4" height="12"/>
		
			<rect x="-15.4" y="104.6" transform="matrix(0.9734 -0.2292 0.2292 0.9734 -25.3451 0.2658)" class="st14" width="7.8" height="9.4"/>
		
			<rect x="-25.8" y="63.3" transform="matrix(0.2292 0.9734 -0.9734 0.2292 49.3123 73.7287)" class="st14" width="7.8" height="9.4"/>
		
			<rect x="25.4" y="76.4" transform="matrix(-0.1884 0.9821 -0.9821 -0.1884 119.672 63.173)" class="st14" width="16.7" height="9.3"/>
		
			<rect x="-9.8" y="135.4" transform="matrix(1.523426e-02 0.9999 -0.9999 1.523426e-02 144.7832 137.56)" class="st14" width="24.7" height="13.8"/>
	</g>
	<g class="st1">
		<defs>
			<path id="SVGID_7_" d="M-141,55.2c0,0-10.5,64.3,4.3,81.3c12.2,14,26.7,8.4,27.3-2.6s-4.5-29.5-4.5-29.5s11.6,33.4,33.5,38.8
				s4.3-38.3-14.6-50.3s33.1-42.2,33.1-42.2s-2.5-14.4-27.2-8.3s-27.2,36.3-27.2,36.3s5.6-21.7-8.4-33.2S-139.5,47.8-141,55.2z"/>
		</defs>
		<clipPath id="SVGID_8_">
			<use xlink:href="#SVGID_7_"  style="overflow:visible;"/>
		</clipPath>
		<g class="st15">
			<g>
				<g>
					<path class="st16" d="M-73.1,149.3c0.3,0,0.7,0,1,0c1.9,0,3.9-0.8,5.3-2.2c0.7-0.7,1.2-1.5,1.6-2.4c0.5-0.9,0.7-1.9,0.6-2.9
						c-0.1-1.9-0.7-4-2.2-5.3c-1.5-1.3-3.3-2.2-5.3-2.2c-0.3,0-0.7,0-1,0c-1.9,0-3.9,0.8-5.3,2.2c-0.7,0.7-1.2,1.5-1.6,2.4
						c-0.5,0.9-0.7,1.9-0.6,2.9c0.1,1.9,0.7,4,2.2,5.3C-76.9,148.4-75.1,149.3-73.1,149.3L-73.1,149.3z"/>
				</g>
			</g>
			<g>
				<g>
					<path class="st16" d="M-136.1,52.8c9.7,0,9.7-15,0-15C-145.8,37.8-145.8,52.8-136.1,52.8L-136.1,52.8z"/>
				</g>
			</g>
			<g>
				<g>
					<path class="st16" d="M-143.6,83.7c9.7,0,9.7-15,0-15C-153.2,68.7-153.2,83.7-143.6,83.7L-143.6,83.7z"/>
				</g>
			</g>
			<g>
				<g>
					<path class="st16" d="M-94,68.1c9.7,0,9.7-15,0-15C-103.7,53.1-103.7,68.1-94,68.1L-94,68.1z"/>
				</g>
			</g>
			<g>
				<g>
					<path class="st16" d="M-86,46.4c9.7,0,9.7-15,0-15C-95.6,31.4-95.6,46.4-86,46.4L-86,46.4z"/>
				</g>
			</g>
			<g>
				<g>
					<path class="st16" d="M-123.7,101.3c9.7,0,9.7-15,0-15C-133.3,86.3-133.4,101.3-123.7,101.3L-123.7,101.3z"/>
				</g>
			</g>
			<g>
				<g>
					<path class="st16" d="M-85,111.5c9.7,0,9.7-15,0-15C-94.7,96.5-94.7,111.5-85,111.5L-85,111.5z"/>
				</g>
			</g>
			<g>
				<g>
					<path class="st16" d="M-135.1,139.2c9.7,0,9.7-15,0-15C-144.8,124.2-144.8,139.2-135.1,139.2L-135.1,139.2z"/>
				</g>
			</g>
		</g>
	</g>
</g>
<g id="Camada_6">
	<g>
		<g>
			<path class="st2" d="M10.1,8.7c0,0.5-0.1,1-0.4,1.2c-0.3,0.3-0.6,0.4-0.9,0.4H5.7c0,0.2,0.1,0.5,0.4,0.6c0.3,0.2,0.6,0.3,0.9,0.3
				c0.5,0,0.9-0.1,1.2-0.2L8.3,11c0.2-0.1,0.4-0.1,0.5-0.1c0.3,0,0.5,0.2,0.7,0.6c0.1,0.2,0.2,0.4,0.2,0.6c0,0.8-0.9,1.2-2.8,1.2
				c-0.7,0-1.2-0.1-1.8-0.3C4.7,12.7,4.3,12.4,4,12c-0.6-0.7-0.8-1.5-0.8-2.4c0-1.1,0.4-2,1.1-2.7c0.7-0.7,1.6-1,2.7-1
				c1.2,0,2.1,0.4,2.7,1.3C10,7.7,10.1,8.2,10.1,8.7z M7.3,9.1c0.3,0,0.5-0.1,0.5-0.4c0-0.2-0.1-0.4-0.2-0.5C7.4,8.1,7.2,8,6.9,8
				S6.3,8.1,6.1,8.4C5.8,8.6,5.6,8.9,5.6,9.1H7.3z"/>
			<path class="st2" d="M18.8,12.5c-0.2-0.1-0.3-0.3-0.3-0.5c0-0.2,0.2-0.6,0.5-1.1c0.1-0.2,0.3-0.2,0.5-0.2c0.2,0,0.5,0.1,0.9,0.3
				c0.4,0.2,0.7,0.3,1,0.3c0.5,0,0.8-0.1,0.8-0.3c0-0.2-0.3-0.3-0.9-0.4c-0.6-0.1-1.1-0.3-1.7-0.6c-0.3-0.2-0.5-0.4-0.6-0.8
				c-0.2-0.3-0.3-0.7-0.3-1.2c0-1.4,1-2.1,2.9-2.1c0.6,0,1.3,0.2,1.9,0.5c0.3,0.1,0.5,0.3,0.5,0.5c0,0.2-0.1,0.5-0.3,0.8
				c-0.2,0.3-0.4,0.5-0.6,0.5c-0.1,0-0.3-0.1-0.6-0.2c-0.3-0.1-0.6-0.2-0.9-0.2c-0.5,0-0.8,0.1-0.8,0.3c0,0.3,0.3,0.4,0.9,0.5
				c0.6,0.1,1.2,0.2,1.7,0.5c0.3,0.1,0.5,0.3,0.6,0.6c0.2,0.3,0.3,0.7,0.3,1.2c0,0.5-0.1,0.9-0.3,1.2c-0.2,0.3-0.4,0.6-0.7,0.7
				c-0.6,0.3-1.3,0.4-2.1,0.4C20.4,13.2,19.6,13,18.8,12.5z"/>
			<path class="st2" d="M35.2,9.6c0,0.4,0.1,0.7,0.4,0.9c0.2,0.2,0.5,0.3,0.8,0.3c0.3,0,0.5-0.1,0.8-0.2c0.2-0.2,0.4-0.2,0.6-0.2
				c0.3,0,0.6,0.2,1,0.7c0.2,0.3,0.3,0.5,0.3,0.7c0,0.3-0.2,0.7-0.7,0.9c-0.5,0.4-1.1,0.5-1.9,0.5c-0.8,0-1.6-0.3-2.4-0.9
				c-0.4-0.3-0.7-0.7-0.9-1.1c-0.2-0.5-0.3-1-0.3-1.6c0-0.6,0.1-1.1,0.3-1.6c0.2-0.5,0.5-0.8,0.9-1.1C34.7,6.3,35.5,6,36.4,6
				c0.3,0,0.7,0,1,0.1c0.3,0.1,0.6,0.2,0.7,0.3l0.2,0.1c0.2,0.1,0.3,0.2,0.4,0.3C38.9,7,39,7.2,39,7.4c0,0.2-0.1,0.5-0.3,0.8
				c-0.3,0.5-0.6,0.7-0.9,0.7c-0.2,0-0.4-0.1-0.7-0.3c-0.2-0.2-0.4-0.2-0.7-0.2c-0.3,0-0.6,0.1-0.8,0.3C35.3,8.9,35.2,9.2,35.2,9.6z
				"/>
			<path class="st2" d="M48.5,6.9c0.7-0.7,1.6-1,2.6-1c1,0,1.8,0.3,2.5,1c0.7,0.7,1.1,1.6,1.1,2.6c0,0.7-0.2,1.4-0.6,2
				c-0.4,0.6-0.8,1-1.4,1.3c-0.5,0.3-1.1,0.4-1.7,0.4c-0.6,0-1.2-0.1-1.7-0.4c-0.6-0.3-1-0.7-1.4-1.3c-0.4-0.6-0.6-1.2-0.6-1.9
				C47.4,8.5,47.8,7.6,48.5,6.9z M50.2,10.5c0.3,0.2,0.6,0.3,0.9,0.3c0.3,0,0.6-0.1,0.9-0.3c0.3-0.2,0.4-0.6,0.4-1
				c0-0.4-0.1-0.8-0.4-1c-0.3-0.2-0.6-0.3-0.9-0.3c-0.3,0-0.6,0.1-0.9,0.3c-0.3,0.2-0.4,0.5-0.4,1C49.8,10,49.9,10.3,50.2,10.5z"/>
			<path class="st2" d="M63.3,3.9c0-0.2,0-0.4,0-0.5c0-0.1,0.1-0.2,0.1-0.4c0.1-0.2,0.5-0.4,1-0.4c0.5,0,0.9,0.1,1,0.4
				c0.1,0.1,0.1,0.3,0.1,0.4c0,0.1,0,0.3,0,0.5v6.2c0,0.3,0,0.5,0.1,0.6c0.1,0.1,0.2,0.1,0.4,0.1c0.2,0,0.3,0,0.4,0
				c0.1,0,0.1,0.1,0.2,0.1c0.2,0.1,0.3,0.4,0.3,0.9c0,0.6-0.1,0.9-0.3,1c-0.2,0.2-0.8,0.2-1.7,0.1c-0.7-0.1-1.1-0.3-1.3-0.7
				c-0.2-0.4-0.4-1.1-0.4-2.1V3.9z"/>
			<path class="st2" d="M80,6.8C80,6.3,80.4,6.1,81,6.1c0.3,0,0.6,0,0.8,0.1c0.2,0.1,0.3,0.1,0.4,0.3c0.1,0.1,0.1,0.3,0.1,0.4
				c0,0.1,0,0.3,0,0.5v4.7c0,0.2,0,0.4,0,0.5c0,0.1-0.1,0.2-0.1,0.4c-0.1,0.2-0.4,0.3-0.9,0.3c-0.5,0-0.8-0.1-1-0.2
				c-0.2-0.1-0.3-0.3-0.3-0.5c-0.3,0.5-0.9,0.7-1.6,0.7c-0.8,0-1.5-0.4-2.1-1.1c-0.7-0.7-1-1.5-1-2.4c0-0.9,0.3-1.7,1-2.4
				c0.7-0.7,1.4-1,2.2-1c0.3,0,0.6,0.1,0.8,0.2c0.2,0.1,0.4,0.2,0.5,0.3C79.8,6.6,79.9,6.7,80,6.8z M77.5,9.6c0,0.3,0.1,0.6,0.3,0.8
				c0.2,0.2,0.5,0.4,0.8,0.4c0.3,0,0.6-0.1,0.8-0.4c0.2-0.2,0.3-0.5,0.3-0.8S79.8,9,79.6,8.8c-0.2-0.2-0.5-0.4-0.8-0.4
				c-0.4,0-0.6,0.1-0.9,0.4C77.6,9,77.5,9.3,77.5,9.6z"/>
		</g>
	</g>
	<path class="st2" d="M2.3,22.6c0,0-3.9,23.8,1.6,30.1c4.5,5.2,9.9,3.1,10.1-1s-1.7-10.9-1.7-10.9s4.3,12.4,12.4,14.4
		c8.1,2,1.6-14.2-5.4-18.6S31.6,21,31.6,21s-0.9-5.3-10.1-3.1S11.4,31.3,11.4,31.3s2.1-8-3.1-12.3S2.9,19.9,2.3,22.6z"/>
	<path class="st17" d="M22.2,32.2c-0.6,0.7-0.5,1.8,0.2,2.4c3,2.5,8.8,8.5,9.3,15.7c0.4,5.6,10.7,6,12.2,2.6
		c1.4-3.4-9.7-19.5-11.3-21.9s-0.8-5.7,1.1-7.2C35.4,22.5,25.6,28.2,22.2,32.2z"/>
	<path class="st18" d="M65.1,41.1c0,0-4.8-6.9-4.9-11.1c-0.2-5.3,1.6-8.1,1.6-8.1s-1.3-1.1-1.5-1.3c-13.4-9.5-26.9,4.8-24.3,9.3
		C37,31.8,48,49.8,50,52.7c1,1.4,1.4,1.9,3.5,2.1c2.5,0.2,4.2-0.7,7.2-2.5C66.6,47.7,65.1,41.1,65.1,41.1z M52.6,37.9
		c-1,0.7-2.2-2-3.2-3.9c-1.2-2.1,3.4-3,4.4-1.7C54.9,33.5,54.8,36.3,52.6,37.9z"/>
	<path class="st11" d="M89.4,44.7c-0.2-3.6-3.2-7.1-7-10.5c-1.9-1.7-3.5-3.2-4.8-4.3c-1.1-1-0.4-2.3,1.2-2.5
		c3.3-0.3,7.4-1.5,7.3-4.2c-0.1-2.2-3.7-4.6-8.1-5.2c-9.5-1.2-14,6-14.4,9.1c-0.9,6.7,3.9,12.1,7.2,15.1c1,0.9,0.4,2.4-1,2.5
		c-0.5,0-1.1,0.1-1.6,0.2c-0.2,2-0.9,4.6-3.1,7c2.3,2,6.6,3.3,10.5,3.5C77.6,55.5,89.9,56,89.4,44.7z"/>
	<g>
		<defs>
			<path id="SVGID_9_" d="M22.3,32.2c-0.6,0.7-0.5,1.8,0.2,2.4c3,2.5,8.8,8.5,9.3,15.7c0.4,5.6,10.7,6,12.2,2.6S34.4,33.3,32.7,31
				s-0.5-6.5,1.4-8C35.8,21.7,25.7,28.2,22.3,32.2z"/>
		</defs>
		<clipPath id="SVGID_10_">
			<use xlink:href="#SVGID_9_"  style="overflow:visible;"/>
		</clipPath>
		<polygon class="st19" points="24.5,36.4 20.4,35.2 20.8,39.4 		"/>
		<polygon class="st19" points="28.1,57.1 33.8,59.7 34,53.4 		"/>
		<polygon class="st19" points="49.8,53.3 43.8,56.2 48.7,60.7 		"/>
	</g>
	<g>
		<defs>
			<path id="SVGID_11_" d="M62.8,27.1c0.4-3.1,4.8-10.3,14.4-9.1c4.4,0.6,8,3,8.1,5.2c0.1,2.7-4,3.9-7.3,4.2
				c-1.6,0.1-2.2,1.5-1.2,2.5c1.2,1.2,2.9,2.6,4.8,4.3c3.9,3.4,6.8,6.9,7,10.5C89.2,56,76.9,55.5,74.8,55.4
				c-6-0.3-12.9-3.3-12.1-7.1c0.4-2.1,3.2-3.3,6.3-3.6c1.4-0.1,2-1.6,1-2.5C66.7,39.2,62,33.8,62.8,27.1z"/>
		</defs>
		<clipPath id="SVGID_12_">
			<use xlink:href="#SVGID_11_"  style="overflow:visible;"/>
		</clipPath>
	</g>
	<g>
		<defs>
			<path id="SVGID_13_" d="M2.3,22.6c0,0-3.9,23.8,1.6,30.1c4.5,5.2,9.9,3.1,10.1-1s-1.7-10.9-1.7-10.9s4.3,12.4,12.4,14.4
				c8.1,2,1.6-14.2-5.4-18.6S31.6,21,31.6,21s-0.9-5.3-10.1-3.1S11.4,31.3,11.4,31.3s2.1-8-3.1-12.3S2.9,19.9,2.3,22.6z"/>
		</defs>
		<clipPath id="SVGID_14_">
			<use xlink:href="#SVGID_13_"  style="overflow:visible;"/>
		</clipPath>
	</g>
	<g>
		<defs>
			<path id="SVGID_15_" d="M65.1,41.1c0,0-4.8-6.9-4.9-11.1c-0.2-5.3,1.6-8.1,1.6-8.1s-1.3-1.1-1.5-1.3c-13.4-9.5-26.9,4.8-24.3,9.3
				C37,31.8,48,49.8,50,52.7c1,1.4,1.4,1.9,3.5,2.1c2.5,0.2,4.2-0.7,7.2-2.5C66.6,47.7,65.1,41.1,65.1,41.1z M52.6,37.9
				c-1,0.7-2.2-2-3.2-3.9c-1.2-2.1,3.4-3,4.4-1.7C54.9,33.5,54.8,36.3,52.6,37.9z"/>
		</defs>
		<clipPath id="SVGID_16_">
			<use xlink:href="#SVGID_15_"  style="overflow:visible;"/>
		</clipPath>
	</g>
</g>
</svg>
